<svg xmlns="http://www.w3.org/2000/svg" viewBox="0 0 420 320" role="img" aria-labelledby="title desc">
  <title id="title">개발자 일러스트</title>
  <desc id="desc">노트북 앞에서 웹 화면을 설계하는 개발자</desc>
  <rect width="420" height="320" rx="32" fill="#dbeafe"/>
  <circle cx="318" cy="78" r="44" fill="#60a5fa" opacity="0.75"/>
  <circle cx="100" cy="88" r="58" fill="#bfdbfe"/>
  <rect x="92" y="176" width="236" height="92" rx="16" fill="#1e293b"/>
  <rect x="116" y="198" width="188" height="42" rx="8" fill="#93c5fd"/>
  <rect x="76" y="260" width="268" height="20" rx="10" fill="#334155"/>
  <circle cx="210" cy="112" r="44" fill="#f8fafc"/>
  <path d="M166 184c8-34 31-52 44-52s36 18 44 52" fill="#2563eb"/>
  <path d="M184 108c20-26 56-20 62 12-18-4-40-10-62-12z" fill="#0f172a"/>
  <circle cx="194" cy="120" r="5" fill="#0f172a"/>
  <circle cx="226" cy="120" r="5" fill="#0f172a"/>
  <path d="M198 142c8 8 18 8 26 0" fill="none" stroke="#0f172a" stroke-width="5" stroke-linecap="round"/>
</svg>
